<?xml version="1.0" encoding="utf-8"?>
<!-- Generator: Adobe Illustrator 27.5.0, SVG Export Plug-In . SVG Version: 6.00 Build 0)  -->
<svg version="1.1" id="Layer_1" xmlns="http://www.w3.org/2000/svg"
	xmlns:xlink="http://www.w3.org/1999/xlink" x="0px" y="0px"
	viewBox="0 0 135 135" style="enable-background:new 0 0 135 135;" xml:space="preserve">
<style type="text/css">
	.st0{fill:url(#SVGID_1_);}
	.st1{fill:url(#SVGID_00000036218480765771206860000000939025294506105239_);}
	.st2{clip-path:url(#SVGID_00000148653707342066621910000002140745713212468629_);}
	.st3{opacity:0.5;clip-path:url(#SVGID_00000013176400170964703040000014385762336701752758_);}
	.st4{fill:url(#SVGID_00000121277657137603387790000005124913154176028567_);}
	.st5{fill:#FF3E00;}
	.st6{fill:#D1D2D3;}
	.st7{fill:none;stroke:#D1D2D3;stroke-miterlimit:10;}
	.st8{fill:none;stroke:#D1D2D3;stroke-width:0.9978;stroke-miterlimit:10;}
	.st9{fill:#121646;}
	.st10{fill:#FFFFFF;}
	.st11{opacity:0.11;fill:url(#SVGID_00000085953021207877963810000014584131537846157706_);}
	.st12{fill:#CE452A;}
	.st13{fill:none;stroke:#FFFFFF;stroke-miterlimit:10;}
	.st14{fill:#F8F9FA;}
	.st15{fill:#732DD9;}
	.st16{fill:#E2E2E2;}
	.st17{fill:none;stroke:#FF3E00;stroke-miterlimit:10;}
	.st18{fill:#FFB41F;}
	.st19{fill:none;stroke:#3F6ED6;stroke-width:1.8109;stroke-linecap:round;stroke-linejoin:round;}
	.st20{fill:none;stroke:#3F6ED6;stroke-width:1.8109;stroke-linecap:round;stroke-linejoin:bevel;}
	.st21{fill:none;stroke:#3F6ED6;stroke-width:1.8109;}
	
		.st22{fill-rule:evenodd;clip-rule:evenodd;fill:none;stroke:#3F6ED6;stroke-width:1.8109;stroke-linecap:round;stroke-linejoin:round;stroke-miterlimit:10;}
	.st23{fill:none;stroke:#3F6ED6;stroke-width:1.8109;stroke-linecap:round;stroke-linejoin:round;stroke-miterlimit:10;}
	.st24{fill:none;stroke:#3F6ED6;stroke-width:1.8109;stroke-linecap:round;stroke-miterlimit:10;}
	.st25{opacity:0.11;fill:url(#SVGID_00000072272922409979958600000018109137319215805863_);}
	.st26{fill:#1A1C46;}
	.st27{fill:url(#SVGID_00000042697477332495833450000017863360619983577763_);}
	.st28{opacity:0.11;fill:url(#SVGID_00000116929591479863941360000008838703152184866995_);}
	.st29{opacity:0.11;fill:url(#SVGID_00000019657349524496725850000005267983546846278038_);}
	.st30{clip-path:url(#SVGID_00000111889130491429311940000005555898890738527931_);}
	.st31{opacity:0.5;clip-path:url(#SVGID_00000114780343868146173230000005037840152575567542_);}
	.st32{fill:none;stroke:#808082;stroke-width:1.8109;stroke-linecap:round;stroke-miterlimit:10;}
	.st33{fill:#808082;}
</style>
<g>
	<g>
		<path class="st22" d="M55.2,77.8c-0.6,0.2-1.5,0.5-2.5,1c-5.4,2.5-10,6.8-12.5,12.2c-0.5,1.1-0.9,2.2-1.2,3.3c0,0,0,0,0,0
			c-2.7,3.7-3,8.2-0.9,13.6c0.7,2.1,0.8,3.8,0.2,5c0,0,0,0,0,0c-1.3,1-1.8,5.1-1.8,5.1c1-0.2,0.7-3.1,1.8-4.8
			c0.8-1.9,0.5-3.8-0.5-6.1c-1.2-3.2-1.7-9,1-12.5c0.1-0.1,0.2,0,0.2,0.1c0.1,5.5,2.3,13.8,6.9,19.4c0,0,0,0,0,0
			c2.6,2.7,5,4.4,3.5,8.5c0,0,0,0.1,0,0.1c0.7,1.9,2.3,3.3,4.9,4.3c0.1,0,0.2,0,0.2-0.1c0.3-0.8,0.4-1.7,0.2-2.6c0,0,0-0.1,0-0.1
			c3-5.6,2.9-10,0.9-14.8c0-0.1,0-0.2,0.1-0.2c3.8,0.5,6.6,0.2,9.8-1.9c0.1,0,0.2,0,0.2,0.1c2.3,4.5,1.7,7.5,0,10c0,0,0,0,0,0
			c-0.4,0.3-0.9,0.5-1.4,0.7c-0.1,0-0.1,0.1-0.1,0.1c0,2.3,0.6,4.3,1.9,6c0,0.1,0.1,0.1,0.2,0c0.8-0.5,1.3-1.3,1.5-2.2
			c0,0,0-0.1,0.1-0.1c5-2.5,7.9-7.8,9.4-21.3c0,0,0,0,0,0c1-6.1,4.7-9.8,11.1-11.2c0,0,0,0,0,0c1.4-0.1,2.7-0.2,3.9-0.1
			c0.1,0,0.2-0.1,0.1-0.2c-0.1-0.6-0.5-1.1-1.2-1.6c-0.1-0.1-0.1-0.3,0.1-0.2c5.1,0.8,9.4-0.5,13-3.7c0.6-0.9,0.5-1.2-0.5-1
			c-4,1.9-7.9,2.1-11.7,0.7c-0.1-0.1-0.1-0.3,0.1-0.3c7.7,0.1,11.8-3.2,12.1-10c0,0,0,0,0,0c-0.3-3.2-2.3-6-6-8.3c0,0,0,0,0,0
			c-3.4-1.7-5.5-3-4.3-4.9c0,0,0,0,0-0.1c0.1-2-0.6-2.7-2.5-2.6c0,0-0.1,0-0.1,0.1c-3.1,5,0.6,7.8,4.1,9.9c4.9,2.9,4.9,6.8,2.8,8.5
			c-4.1,3.8-10.6-4.2-15.7-5.2c-5-1-10.3,0.9-13.1,6.3c0,0-0.1,0.1-0.1,0.1C68,76.8,62.3,76,55.2,77.8"/>
	</g>
	<path class="st23" d="M83.3,26.2C83.3,16.2,71.5,8,56.9,8s-26.3,8.2-26.3,18.2c0,1.3,0.2,2.6,0.6,3.8C33,40.4,51.5,58.8,51.5,58.8
		h11.1c0,0,18-18.3,20.2-28.9C83.1,28.7,83.3,27.5,83.3,26.2z"/>
	<line class="st23" x1="52.1" y1="62.1" x2="57.3" y2="74.2"/>
	<line class="st23" x1="62.7" y1="62.1" x2="57.5" y2="74.3"/>
	<line class="st23" x1="55.1" y1="61.9" x2="57.5" y2="74.3"/>
	<line class="st23" x1="59.4" y1="61.9" x2="57.5" y2="74.3"/>
</g>
</svg>