<?xml version="1.0" encoding="UTF-8"?>
<svg id="Layer_1" data-name="Layer 1" xmlns="http://www.w3.org/2000/svg" xmlns:xlink="http://www.w3.org/1999/xlink" viewBox="0 0 1920 905.8">
  <defs>
    <style>
      .cls-1 {
        fill: url(#linear-gradient);
      }

      .cls-1, .cls-2, .cls-3 {
        stroke-width: 0px;
      }

      .cls-2 {
        fill: url(#linear-gradient-2);
      }

      .cls-3 {
        fill: #f6f9fd;
        isolation: isolate;
        opacity: .11;
      }
    </style>
    <linearGradient id="linear-gradient" x1="960" y1="1121.8" x2="960" y2="216" gradientTransform="translate(0 -216)" gradientUnits="userSpaceOnUse">
      <stop offset=".1" stop-color="#ceefe5"/>
      <stop offset=".53" stop-color="#81cfdd"/>
      <stop offset="1" stop-color="#5e98a3"/>
    </linearGradient>
    <linearGradient id="linear-gradient-2" x1="1115.85" y1="118.47" x2="1115.85" y2="628.32" gradientTransform="translate(0 -216)" gradientUnits="userSpaceOnUse">
      <stop offset="0" stop-color="#b5f1fc"/>
      <stop offset=".44" stop-color="#81cfdd"/>
      <stop offset="1" stop-color="#326077"/>
    </linearGradient>
  </defs>
  <rect class="cls-1" width="1920" height="905.8"/>
  <path class="cls-3" d="M495.9,507.6c0,37.3-30.3,67.6-67.6,67.6H171.2c-37.3,0-67.6-30.3-67.6-67.6s29.1-66.4,65.4-67.5v-.1c0-37.3,30.3-67.6,67.6-67.6,9,0,17.7,1.8,25.6,5,17.8-21,44.4-34.4,74.1-34.4,53.6,0,97,43.4,97,97.1v.2c34.9,2.4,62.6,31.6,62.6,67.3Z"/>
  <path class="cls-2" d="M1312,200c0,37.3-30.3,67.6-67.6,67.6h-257.1c-37.3,0-67.6-30.3-67.6-67.6s29.1-66.4,65.4-67.5v-.1c0-37.3,30.3-67.6,67.6-67.6,9,0,17.7,1.8,25.6,5,17.8-21,44.4-34.4,74.1-34.4,53.6,0,97,43.4,97,97v.2c34.9,2.5,62.6,31.7,62.6,67.4Z"/>
  <path class="cls-3" d="M1789.65,749.7c0,37.3-30.3,67.6-67.6,67.6h-257.1c-37.3,0-67.6-30.3-67.6-67.6s29.1-66.4,65.4-67.5v-.1c0-37.3,30.3-67.6,67.6-67.6,9,0,17.7,1.8,25.6,5,17.8-21,44.4-34.4,74.1-34.4,53.6,0,97,43.4,97,97.1v.2c34.9,2.4,62.6,31.6,62.6,67.3Z"/>
</svg>