<?xml version="1.0" encoding="utf-8"?>
<!-- Generator: Adobe Illustrator 27.5.0, SVG Export Plug-In . SVG Version: 6.00 Build 0)  -->
<svg version="1.1" id="Layer_1" xmlns="http://www.w3.org/2000/svg" xmlns:xlink="http://www.w3.org/1999/xlink" x="0px" y="0px"
	 viewBox="0 0 135 135" style="enable-background:new 0 0 135 135;" xml:space="preserve">
<style type="text/css">
	.st0{fill:url(#SVGID_1_);}
	.st1{fill:url(#SVGID_00000155858322536304638470000011550945121344975496_);}
	.st2{clip-path:url(#SVGID_00000088831804128751436900000011216315300257621692_);}
	.st3{opacity:0.5;clip-path:url(#SVGID_00000025431027986770152780000000794036297905889714_);}
	.st4{fill:url(#SVGID_00000172402237698052656820000017760006303017773993_);}
	.st5{fill:#FF3E00;}
	.st6{fill:#D1D2D3;}
	.st7{fill:none;stroke:#D1D2D3;stroke-miterlimit:10;}
	.st8{fill:none;stroke:#D1D2D3;stroke-width:0.9978;stroke-miterlimit:10;}
	.st9{fill:#121646;}
	.st10{fill:#FFFFFF;}
	.st11{opacity:0.11;fill:url(#SVGID_00000035507594865144016950000017493593005653373082_);}
	.st12{fill:#CE452A;}
	.st13{fill:none;stroke:#FFFFFF;stroke-miterlimit:10;}
	.st14{fill:#F8F9FA;}
	.st15{fill:#732DD9;}
	.st16{fill:#E2E2E2;}
	.st17{fill:none;stroke:#FF3E00;stroke-miterlimit:10;}
	.st18{fill:#FFB41F;}
	.st19{fill:none;stroke:#3F6ED6;stroke-width:1.8109;stroke-linecap:round;stroke-linejoin:round;}
	.st20{fill:none;stroke:#3F6ED6;stroke-width:1.8109;stroke-linecap:round;stroke-linejoin:bevel;}
	.st21{fill:none;stroke:#3F6ED6;stroke-width:1.8109;}
	
		.st22{fill-rule:evenodd;clip-rule:evenodd;fill:none;stroke:#3F6ED6;stroke-width:1.8109;stroke-linecap:round;stroke-linejoin:round;stroke-miterlimit:10;}
	.st23{fill:none;stroke:#3F6ED6;stroke-width:1.8109;stroke-linecap:round;stroke-linejoin:round;stroke-miterlimit:10;}
	.st24{fill:none;stroke:#3F6ED6;stroke-width:1.8109;stroke-linecap:round;stroke-miterlimit:10;}
	.st25{opacity:0.11;fill:url(#SVGID_00000134216496613702350090000003166210903835063460_);}
	.st26{fill:#1A1C46;}
	.st27{fill:url(#SVGID_00000042006574755096905360000006432459385711173300_);}
	.st28{opacity:0.11;fill:url(#SVGID_00000158711277372789316640000000934260805666086323_);}
	.st29{opacity:0.11;fill:url(#SVGID_00000049208852127600842510000005263961281973220499_);}
	.st30{clip-path:url(#SVGID_00000063628220218293558720000010006813235150292145_);}
	.st31{opacity:0.5;clip-path:url(#SVGID_00000032613241756448278320000016563422296383198350_);}
	.st32{fill:none;stroke:#808082;stroke-width:1.8109;stroke-linecap:round;stroke-miterlimit:10;}
	.st33{fill:#808082;}
</style>
<g>
	<path class="st24" d="M78,102.1c-0.2,0.4-0.6,0.7-1.1,0.7H58c-0.4,0-0.9-0.3-1.1-0.7l-0.9-1.7H19.6l0.6,1.2
		c1.8,3.6,5.5,5.9,9.5,5.9h75.5c4.1,0,7.7-2.3,9.5-5.9l0.6-1.2H78.9L78,102.1z"/>
	<path class="st24" d="M113.8,36.7c0.8,0.4,1.3,1.2,1.3,2v55.7"/>
	<path class="st24" d="M20,94.6V38.7c0-1.3,1.2-2.4,2.6-2.4h64.9"/>
	<path class="st24" d="M90,94.6V43.5c0-1.3-1.1-2.4-2.4-2.4h-7.1c-1.3,0-2.4,1.1-2.4,2.4v51.1"/>
	<path class="st24" d="M73.4,94.6V53c0-1.3-1.1-2.4-2.4-2.4h-7.1c-1.3,0-2.4,1.1-2.4,2.4v41.6"/>
	<path class="st24" d="M56.8,94.6V62.5c0-1.3-1.1-2.4-2.4-2.4h-7.1c-1.3,0-2.4,1.1-2.4,2.4v32.1"/>
	<path class="st24" d="M40.2,94.6V71.9c0-1.3-1.1-2.4-2.4-2.4h-7.1c-1.3,0-2.4,1.1-2.4,2.4v22.6"/>
	<path class="st24" d="M106.6,94.5V26.9h3.6c0.4,0,0.8-0.2,1-0.6c0.2-0.4,0.2-0.8,0-1.2l-9.5-16.6c-0.4-0.7-1.6-0.7-2.1,0l-9.5,16.6
		c-0.2,0.4-0.2,0.8,0,1.2c0.2,0.4,0.6,0.6,1,0.6h3.6v67.6"/>
	<path class="st24" d="M114.8,101.6c-1.8,3.6-5.5,5.9-9.5,5.9H29.8c-4.1,0-7.7-2.3-9.5-5.9l-0.6-1.2h36.5l0.9,1.7
		c0.2,0.4,0.6,0.7,1.1,0.7h19c0.4,0,0.9-0.3,1.1-0.7l0.9-1.7h36.5L114.8,101.6z"/>
</g>
</svg>
