<?xml version="1.0" encoding="utf-8"?>
<!-- Generator: Adobe Illustrator 27.5.0, SVG Export Plug-In . SVG Version: 6.00 Build 0)  -->
<svg version="1.1" id="Layer_1" xmlns="http://www.w3.org/2000/svg" xmlns:xlink="http://www.w3.org/1999/xlink" x="0px" y="0px"
	 viewBox="0 0 135 135" style="enable-background:new 0 0 135 135;" xml:space="preserve">
<style type="text/css">
	.st0{fill:url(#SVGID_1_);}
	.st1{fill:url(#SVGID_00000109752586929021358020000009620549957207866282_);}
	.st2{clip-path:url(#SVGID_00000150819887734224011190000006147246036994179251_);}
	.st3{opacity:0.5;clip-path:url(#SVGID_00000134953415661249713480000013935802082267499708_);}
	.st4{fill:url(#SVGID_00000168075418631134247750000010627408578583599260_);}
	.st5{fill:#FF3E00;}
	.st6{fill:#D1D2D3;}
	.st7{fill:none;stroke:#D1D2D3;stroke-miterlimit:10;}
	.st8{fill:none;stroke:#D1D2D3;stroke-width:0.9978;stroke-miterlimit:10;}
	.st9{fill:#121646;}
	.st10{fill:#FFFFFF;}
	.st11{opacity:0.11;fill:url(#SVGID_00000005956949038812397110000014476769474967661481_);}
	.st12{fill:#CE452A;}
	.st13{fill:none;stroke:#FFFFFF;stroke-miterlimit:10;}
	.st14{fill:#F8F9FA;}
	.st15{fill:#732DD9;}
	.st16{fill:#E2E2E2;}
	.st17{fill:none;stroke:#FF3E00;stroke-miterlimit:10;}
	.st18{fill:#FFB41F;}
	.st19{fill:none;stroke:#3F6ED6;stroke-width:1.8109;stroke-linecap:round;stroke-linejoin:round;}
	.st20{fill:none;stroke:#3F6ED6;stroke-width:1.8109;stroke-linecap:round;stroke-linejoin:bevel;}
	.st21{fill:none;stroke:#3F6ED6;stroke-width:1.8109;}
	
		.st22{fill-rule:evenodd;clip-rule:evenodd;fill:none;stroke:#3F6ED6;stroke-width:1.8109;stroke-linecap:round;stroke-linejoin:round;stroke-miterlimit:10;}
	.st23{fill:none;stroke:#3F6ED6;stroke-width:1.8109;stroke-linecap:round;stroke-linejoin:round;stroke-miterlimit:10;}
	.st24{fill:none;stroke:#3F6ED6;stroke-width:1.8109;stroke-linecap:round;stroke-miterlimit:10;}
	.st25{opacity:0.11;fill:url(#SVGID_00000126307072666699247670000010413768456474373050_);}
	.st26{fill:#1A1C46;}
	.st27{fill:url(#SVGID_00000139259914865007835790000017924801392509771431_);}
	.st28{opacity:0.11;fill:url(#SVGID_00000021112440692731031770000008962159003379443900_);}
	.st29{opacity:0.11;fill:url(#SVGID_00000044141776037697913840000014040342169396101545_);}
	.st30{clip-path:url(#SVGID_00000075139778079496438800000008731410143422448822_);}
	.st31{opacity:0.5;clip-path:url(#SVGID_00000142882800974072471540000016050939263499517569_);}
	.st32{fill:none;stroke:#808082;stroke-width:1.8109;stroke-linecap:round;stroke-miterlimit:10;}
	.st33{fill:#808082;}
</style>
<g id="Layer_2_00000008114962870891826280000014791485863820815510_">
	<g id="Layer_1-2_00000154399206575876701750000014395689891418835646_">
		<path class="st23" d="M107.8,41.3c-0.6-1.8-1.9-3.2-3.6-4.1L70.2,20.8c-0.9-0.4-1.9-0.6-2.8-0.6c-0.9,0-1.9,0-2.8,0.2L30.5,36.9
			c-1.7,0.8-2.9,2.2-3.4,4.1l-8.4,36.8c-0.3,1.9,0.1,3.8,1.2,5.4l23.6,29.2c1.3,1.3,3.2,2.2,5.1,2.3h37.6c2,0.2,3.9-0.7,5.1-2.3
			L115,83.2c1.1-1.6,1.6-3.5,1.3-5.4L107.8,41.3z"/>
		<path class="st23" d="M102.6,76.4L102.6,76.4c-0.1,0-0.2,0-0.2-0.1s-0.2-0.1-0.4-0.1c-0.4-0.1-0.9-0.1-1.3-0.1
			c-0.2,0-0.4,0-0.7-0.1h-0.1c-1.2-0.1-2.6-0.3-3.8-0.7c-0.3-0.1-0.7-0.4-0.8-0.8c0.1,0,0,0,0,0l0,0l-0.9-0.2
			c0.4-3.2,0.2-6.6-0.4-9.8c-0.8-3.2-2.1-6.4-3.9-9.2l0.7-0.7l0,0v-0.1c0-0.3,0.1-0.8,0.3-1c1-0.9,2-1.6,3.1-2.2l0,0
			c0.2-0.1,0.4-0.2,0.7-0.3c0.4-0.2,0.8-0.4,1.2-0.7c0.1-0.1,0.2-0.1,0.3-0.2c0.1-0.1,0-0.1,0-0.2l0,0c1-0.8,1.2-2.1,0.4-3.1
			c-0.3-0.4-1-0.8-1.6-0.8s-1.1,0.2-1.6,0.6l0,0l-0.1,0.1c-0.1,0.1-0.2,0.2-0.3,0.2c-0.3,0.3-0.7,0.7-0.9,1
			c-0.1,0.2-0.3,0.3-0.4,0.4l0,0c-0.8,0.9-1.8,1.8-2.8,2.5c-0.2,0.1-0.4,0.2-0.7,0.2c-0.1,0-0.3,0-0.4-0.1h-0.1l-0.9,0.6
			c-0.9-0.9-1.9-1.8-2.8-2.7c-4.1-3.2-9.3-5.3-14.5-5.8l-0.1-0.9l0,0V42c-0.3-0.2-0.4-0.6-0.6-0.9c0-1.2,0-2.5,0.2-3.8v-0.1
			c0-0.2,0.1-0.4,0.1-0.7c0.1-0.4,0.1-0.9,0.2-1.3v-0.7l0,0c0.1-1.1-0.8-2.2-1.9-2.3c-0.7-0.1-1.3,0.2-1.9,0.8
			c-0.4,0.4-0.7,1-0.7,1.6l0,0v0.6c0,0.4,0.1,0.9,0.2,1.3c0.1,0.2,0.1,0.4,0.1,0.7v0.1c0.2,1.2,0.2,2.5,0.2,3.8
			c-0.1,0.3-0.2,0.7-0.6,0.9v0.2l0,0L64.9,43c-1.2,0.1-2.5,0.3-3.8,0.6c-5.3,1.1-10.1,3.9-13.8,7.8L46.7,51h-0.1
			c-0.1,0-0.2,0.1-0.4,0.1s-0.4-0.1-0.7-0.2c-1-0.8-2-1.7-2.8-2.6l0,0c-0.1-0.2-0.3-0.3-0.4-0.4c-0.3-0.3-0.6-0.7-0.9-1
			c-0.1-0.1-0.2-0.1-0.3-0.2c-0.1-0.1-0.1-0.1-0.1-0.1l0,0c-0.4-0.3-1-0.6-1.6-0.6c-0.7,0-1.2,0.2-1.6,0.8c-0.7,1-0.4,2.3,0.4,3.1
			l0,0c0.1,0,0.1,0.1,0.1,0.1s0.2,0.2,0.3,0.2c0.3,0.2,0.8,0.4,1.2,0.7c0.2,0.1,0.4,0.2,0.7,0.3l0,0c1.1,0.7,2.2,1.3,3.1,2.2
			c0.2,0.2,0.4,0.7,0.3,1v-0.1l0,0l0.7,0.7c-0.1,0.2-0.2,0.3-0.3,0.6c-3.5,5.5-4.9,12-3.9,18.3l-0.9,0.2l0,0c0,0.1-0.1,0.1-0.1,0.1
			c-0.1,0.3-0.4,0.6-0.8,0.8c-1.2,0.3-2.5,0.6-3.8,0.7l0,0c-0.2,0-0.4,0-0.7,0.1c-0.4,0-0.9,0.1-1.3,0.1c-0.1,0-0.2,0.1-0.4,0.1
			c-0.1,0-0.1,0-0.2,0.1l0,0c-1.2,0.2-2,1.3-1.8,2.6l0,0c0.2,1,1.2,1.7,2.2,1.6c0.2,0,0.3,0,0.6-0.1l0,0c0.1,0,0.1,0,0.1-0.1
			s0.3,0,0.4,0c0.4-0.1,0.9-0.3,1.2-0.4c0.2-0.1,0.4-0.2,0.7-0.2h0.1c1.2-0.4,2.3-0.8,3.7-1h0.1c0.3,0,0.7,0.1,0.9,0.3
			c0.1,0,0.1,0.1,0.1,0.1l0,0l1-0.1c1.7,5.1,4.8,9.7,9.2,13.1c1,0.8,1.9,1.5,3,2l-0.6,0.8l0,0c0,0.1,0.1,0.1,0.1,0.1
			c0.2,0.3,0.2,0.8,0.1,1.1c-0.4,1.1-1.1,2.2-1.8,3.2v0.1c-0.1,0.2-0.2,0.3-0.4,0.6s-0.4,0.7-0.8,1.1c-0.1,0.1-0.1,0.2-0.2,0.3
			c0,0,0,0.1-0.1,0.1l0,0c-0.6,1.1-0.1,2.5,0.9,3c0.2,0.1,0.6,0.2,0.8,0.2c0.9,0,1.7-0.6,2.1-1.3l0,0c0,0,0-0.1,0.1-0.1
			c0-0.1,0.1-0.2,0.2-0.3c0.1-0.4,0.3-0.8,0.4-1.2l0.2-0.7l0,0c0.3-1.2,0.9-2.3,1.5-3.5c0.2-0.3,0.6-0.6,0.9-0.7
			c0.1,0,0.1,0,0.1-0.1l0,0l0.4-0.9c3.1,1.2,6.4,1.8,9.7,1.8c2,0,4-0.2,6-0.8c1.2-0.2,2.5-0.7,3.6-1l0.4,0.8l0,0
			c0.1,0,0.1,0,0.1,0.1c0.3,0.1,0.7,0.3,0.9,0.7c0.6,1.1,1.1,2.2,1.5,3.5v0.1l0.2,0.7c0.1,0.4,0.2,0.9,0.4,1.2
			c0.1,0.1,0.1,0.2,0.2,0.3c0,0,0,0.1,0.1,0.1l0,0c0.4,0.8,1.2,1.3,2.1,1.3c0.3,0,0.6-0.1,0.9-0.2c0.4-0.2,0.9-0.7,1-1.2
			c0.1-0.6,0.1-1.1-0.1-1.7l0,0c0-0.1-0.1-0.1-0.1-0.1c0-0.1-0.1-0.2-0.2-0.3c-0.2-0.4-0.4-0.8-0.8-1.1c-0.1-0.2-0.2-0.3-0.4-0.6
			v-0.2c-0.8-1-1.3-2.1-1.8-3.2c-0.1-0.3-0.1-0.8,0.1-1.1c0-0.1,0.1-0.1,0.1-0.1l0,0l-0.3-0.9c5.7-3.5,10.1-8.8,12.1-15.2l0.9,0.1
			l0,0c0.1,0,0.1-0.1,0.1-0.1c0.2-0.2,0.6-0.3,0.9-0.3h0.1c1.2,0.2,2.5,0.6,3.6,1h0.1c0.2,0.1,0.4,0.2,0.7,0.2
			c0.4,0.2,0.8,0.4,1.2,0.6c0.1,0,0.2,0.1,0.4,0.1c0.1,0,0.1,0,0.2,0.1l0,0c0.2,0.1,0.3,0.1,0.6,0.1c1,0,1.9-0.7,2.2-1.6
			C104.5,77.5,103.6,76.6,102.6,76.4z M70.3,72.9l-3,1.5l-3-1.5l-0.8-3.2l2.1-2.7h3.4l2.1,2.7L70.3,72.9z M88.5,65.6
			c0.6,2.3,0.7,4.7,0.4,7l-10.6-3l0,0c-1-0.2-1.6-1.2-1.3-2.2c0.1-0.3,0.2-0.6,0.4-0.8l8.4-7.6C87,61.1,87.9,63.3,88.5,65.6z
			 M82.5,54.9l-9.2,6.5c-0.8,0.4-1.9,0.3-2.5-0.4c-0.2-0.2-0.3-0.4-0.3-0.8l-0.7-11.3C74.7,49.4,79.1,51.5,82.5,54.9L82.5,54.9z
			 M62.2,49.2l2.2-0.4l-0.6,11.2l0,0c0,1-0.9,1.8-1.9,1.8c-0.3,0-0.6-0.1-0.9-0.2l-9.3-6.6C54.7,52.1,58.3,50.1,62.2,49.2z M48.6,59
			l8.3,7.4l0,0c0.8,0.7,0.9,1.8,0.2,2.6c-0.2,0.3-0.4,0.4-0.9,0.6l-10.8,3.1C45,68,46.1,63.2,48.6,59z M46.7,77.9L57.7,76
			c0.9,0,1.8,0.6,1.9,1.5c0.1,0.3,0.1,0.8-0.1,1.1l0,0l-4.2,10.3C51.4,86.3,48.2,82.4,46.7,77.9z M72.1,91.8
			c-1.6,0.3-3.1,0.6-4.8,0.6c-2.3,0-4.8-0.4-7-1.1l5.5-10c0.6-0.7,1.5-0.9,2.2-0.4c0.3,0.2,0.6,0.4,0.9,0.8l0,0l5.4,9.7
			C73.5,91.5,72.8,91.6,72.1,91.8z M85.7,82.1c-1.7,2.7-4,5-6.7,6.7l-4.4-10.5c-0.2-0.9,0.2-1.8,1-2.1c0.3-0.1,0.7-0.2,1-0.2
			l11.2,1.9C87.3,79.4,86.6,80.8,85.7,82.1z"/>
	</g>
</g>
</svg>
