<?xml version="1.0" encoding="utf-8"?>
<!-- Generator: Adobe Illustrator 27.5.0, SVG Export Plug-In . SVG Version: 6.00 Build 0)  -->
<svg version="1.1" id="Layer_1" xmlns="http://www.w3.org/2000/svg" xmlns:xlink="http://www.w3.org/1999/xlink" x="0px" y="0px"
	 viewBox="0 0 135 135" style="enable-background:new 0 0 135 135;" xml:space="preserve">
<style type="text/css">
	.st0{fill:url(#SVGID_1_);}
	.st1{fill:url(#SVGID_00000038390742112417394700000015909684606715449741_);}
	.st2{clip-path:url(#SVGID_00000022533710249320327000000004425153959423957135_);}
	.st3{opacity:0.5;clip-path:url(#SVGID_00000151503052049451842760000004248745050552505988_);}
	.st4{fill:url(#SVGID_00000045606148894229865320000017902158362898793394_);}
	.st5{fill:#FF3E00;}
	.st6{fill:#D1D2D3;}
	.st7{fill:none;stroke:#D1D2D3;stroke-miterlimit:10;}
	.st8{fill:none;stroke:#D1D2D3;stroke-width:0.9978;stroke-miterlimit:10;}
	.st9{fill:#121646;}
	.st10{fill:#FFFFFF;}
	.st11{opacity:0.11;fill:url(#SVGID_00000134949122765860845240000011099492794088544417_);}
	.st12{fill:#CE452A;}
	.st13{fill:none;stroke:#FFFFFF;stroke-miterlimit:10;}
	.st14{fill:#F8F9FA;}
	.st15{fill:#732DD9;}
	.st16{fill:#E2E2E2;}
	.st17{fill:none;stroke:#FF3E00;stroke-miterlimit:10;}
	.st18{fill:#FFB41F;}
	.st19{fill:none;stroke:#3F6ED6;stroke-width:1.8109;stroke-linecap:round;stroke-linejoin:round;}
	.st20{fill:none;stroke:#3F6ED6;stroke-width:1.8109;stroke-linecap:round;stroke-linejoin:bevel;}
	.st21{fill:none;stroke:#3F6ED6;stroke-width:1.8109;}
	
		.st22{fill-rule:evenodd;clip-rule:evenodd;fill:none;stroke:#3F6ED6;stroke-width:1.8109;stroke-linecap:round;stroke-linejoin:round;stroke-miterlimit:10;}
	.st23{fill:none;stroke:#3F6ED6;stroke-width:1.8109;stroke-linecap:round;stroke-linejoin:round;stroke-miterlimit:10;}
	.st24{fill:none;stroke:#3F6ED6;stroke-width:1.8109;stroke-linecap:round;stroke-miterlimit:10;}
	.st25{opacity:0.11;fill:url(#SVGID_00000051372002817635004850000007454528685570870458_);}
	.st26{fill:#1A1C46;}
	.st27{fill:url(#SVGID_00000041264861363172665200000013416423522800335498_);}
	.st28{opacity:0.11;fill:url(#SVGID_00000150793554938361260510000011313282768684677007_);}
	.st29{opacity:0.11;fill:url(#SVGID_00000006697174449536611340000005494300915031292330_);}
	.st30{clip-path:url(#SVGID_00000084531183544145191870000002874959916814123416_);}
	.st31{opacity:0.5;clip-path:url(#SVGID_00000108272309700515352190000012058415090775315117_);}
	.st32{fill:none;stroke:#808082;stroke-width:1.8109;stroke-linecap:round;stroke-miterlimit:10;}
	.st33{fill:#808082;}
</style>
<g>
	<g>
		<path id="path2466_00000153674800551517119560000000393202414186847387_" class="st19" d="M67.4,84.4c-0.4,13.2,0.1,26.4,1.4,29.7
			c1.3,3.2,4.1,9.5,13.5,7.5c7.9-1.7,10.8-5,12.1-12.3c0.9-5.3,2.7-20.2,2.9-23.2"/>
		<path id="path2468_00000017491354308030706540000015030405307960240803_" class="st19" d="M56.1,18.4c0,0-43-17.6-41,22.4
			c0.4,8.5,12.2,64.3,26.2,47.4c5.1-6.2,9.8-11,9.8-11"/>
		<path id="path2470_00000125597011007371150890000003209925376204169654_" class="st19" d="M79.3,15.2c-1.5,0.5,23.9-9.3,38.3,9.2
			c5.1,6.5-0.8,33.1-14.9,54.1"/>
		<path id="path2472_00000168821204139704390940000002396236315766926775_" class="st20" d="M102.7,78.5c0,0,0.9,4.5,14.3,1.8
			c5.9-1.2,2.3,3.4-3.6,6.2c-4.9,2.3-15.8,2.8-16-0.3C96.9,78,103.1,80.5,102.7,78.5c-0.4-1.8-3.2-3.6-5-8.1
			c-1.6-3.9-22-33.8,5.7-29.3c1-0.2-7.2-26.3-33.1-26.8c-25.9-0.4-25.1,31.9-25.1,31.9"/>
		<path id="path2474_00000123405919456721202820000002438287358440422049_" class="st19" d="M60.2,81.2c-3.6,4-2.6,4.7-9.8,6.2
			c-7.3,1.5-3,4.2-0.2,4.9c3.4,0.9,11.3,2.1,16.6-5.4c1.6-2.3,0-5.9-2.2-6.8C63.5,79.7,62,79.1,60.2,81.2L60.2,81.2L60.2,81.2z"/>
		<path id="path2476_00000054981057116314409060000010748509120097029543_" class="st19" d="M59.9,81.1c-0.4-2.4,0.8-5.2,2-8.5
			c1.8-5,6.1-9.9,2.7-25.6c-2.5-11.7-19.5-2.4-19.5-0.8c0,1.6,0.8,8.1-0.3,15.6c-1.4,9.8,6.2,18.1,15,17.3"/>
		<path id="path2482_00000123421655522522015890000005341526501547247748_" class="st19" d="M103.3,41.1c0.2,4.3-0.9,7.2-1.1,11.7
			c-0.2,6.6,3.1,14.1-1.9,21.7"/>
	</g>
	<path id="path2478_00000024681148018632113080000009001514306037495940_" class="st21" d="M55.9,45.9c-0.1,0.5,1,2,2.4,2.2
		c1.4,0.2,2.6-0.9,2.7-1.5c0.1-0.5-1-1.1-2.4-1.3C57.2,45.1,56,45.4,55.9,45.9L55.9,45.9L55.9,45.9z"/>
	<path id="path2480_00000132794944257644181370000012601919743409585077_" class="st21" d="M98.3,44.8c0.1,0.5-1,2-2.4,2.2
		c-1.4,0.2-2.6-0.9-2.7-1.5c-0.1-0.5,1-1.1,2.4-1.3C97.1,44,98.2,44.3,98.3,44.8L98.3,44.8L98.3,44.8z"/>
</g>
</svg>
